<svg width="40" height="40" viewBox="0 0 90 74" fill="none" xmlns="http://www.w3.org/2000/svg">
<path d="M53.1707 66.8851C55.8444 65.912 58.3396 64.4891 60.6572 62.613L61.4718 61.9537V63.0017V72.9265H88.7761V55.0971C88.7761 52.6081 88.0367 50.5532 86.5762 48.8981C85.1187 47.2463 83.3334 46.4324 81.1892 46.4324H67.9468C66.7721 46.4324 65.6347 46.7811 64.5266 47.4978C63.4132 48.2198 62.4342 49.1988 61.5924 50.4449C59.6662 53.4834 57.2361 55.8686 54.3024 57.5904L54.3023 57.5905C51.3606 59.3154 48.1895 60.1795 44.7979 60.1795C41.4718 60.1795 38.336 59.3144 35.3986 57.5905L53.1707 66.8851ZM53.1707 66.8851C50.496 67.8575 47.706 68.3442 44.7979 68.3442C41.9609 68.3442 39.1896 67.8405 36.4816 66.8316C33.7705 65.8184 31.2565 64.3749 28.9385 62.4985L28.124 61.8391V62.8871V72.9265H0.819611V55.0971C0.819611 52.6111 1.5746 50.5577 3.06839 48.9022L3.06867 48.9019C4.56295 47.2431 6.3341 46.4324 8.40657 46.4324H21.649C22.8964 46.4324 24.0853 46.7843 25.2239 47.5011C26.3644 48.2192 27.2852 49.1888 27.9876 50.419L27.9952 50.4324L28.0037 50.4454C29.9971 53.4834 32.4619 55.8685 35.3984 57.5904L53.1707 66.8851ZM37.7717 52.6583L37.7713 52.658C35.5541 51.3662 33.6907 49.5736 32.1812 47.2704C31.0006 45.3055 29.519 43.7426 27.7344 42.5932C26.1791 41.5904 24.5005 41.0189 22.7054 40.8823C24.2378 38.5367 27.1046 36.5994 31.4146 35.119C36.1568 33.4931 40.6169 32.6854 44.7979 32.6854C48.9789 32.6854 53.4389 33.4931 58.1811 35.119C62.4923 36.5998 65.3594 38.5377 66.8915 40.8841C65.1496 41.0242 63.4897 41.5959 61.9174 42.591C60.0949 43.7413 58.5928 45.3071 57.4103 47.2774C55.9681 49.6544 54.1412 51.462 51.9307 52.7146C49.7144 53.9704 47.3395 54.5971 44.7979 54.5971C42.3289 54.5971 39.9894 53.9533 37.7717 52.6583ZM53.0616 23.2652L53.0614 23.2654C50.8294 25.833 48.0851 27.103 44.7979 27.103C41.5809 27.103 38.8504 25.8352 36.5804 23.2626C34.3083 20.6878 33.1674 17.5622 33.1674 13.8559C33.1674 10.0706 34.3099 6.9276 36.5779 4.39247C38.8471 1.85914 41.5782 0.608887 44.7979 0.608887C48.0878 0.608887 50.8328 1.86125 53.0639 4.3897C55.3007 6.92466 56.4283 10.0686 56.4283 13.8559C56.4283 17.5641 55.3023 20.6905 53.0616 23.2652ZM12.45 40.8501C9.2331 40.8501 6.50258 39.5822 4.23256 37.0097C1.9605 34.4348 0.819611 31.3092 0.819611 27.603C0.819611 23.8177 1.96208 20.6747 4.23009 18.1395C6.49923 15.6062 9.23037 14.3559 12.45 14.3559C15.7398 14.3559 18.4861 15.6082 20.7199 18.1365C22.9542 20.6715 24.0805 23.8155 24.0805 27.603C24.0805 31.3112 22.9558 34.4376 20.7178 37.0123C18.4831 39.5801 15.7373 40.8501 12.45 40.8501ZM77.1457 40.8501C73.9287 40.8501 71.1982 39.5822 68.9282 37.0097C66.6561 34.4348 65.5153 31.3092 65.5153 27.603C65.5153 23.8177 66.6577 20.6747 68.9257 18.1395C71.1949 15.6062 73.926 14.3559 77.1457 14.3559C80.4355 14.3559 83.1818 15.6082 85.4156 18.1365C87.6498 20.6715 88.7761 23.8155 88.7761 27.603C88.7761 31.3112 87.6515 34.4376 85.4135 37.0123C83.1787 39.5801 80.4329 40.8501 77.1457 40.8501Z" fill="#FBBC04" stroke="black"/>
</svg>
