<svg width="40" height="40" viewBox="0 0 73 84" fill="none" xmlns="http://www.w3.org/2000/svg">
<path d="M60.2826 23.6588V36.9059H53.1956V23.6588V23.1588H52.6956H41.0652V14.9941H52.6956H53.1956V14.4941V1.24707H60.2826V14.4941V14.9941H60.7826H72.413V23.1588H60.7826H60.2826V23.6588ZM43.4809 76.1986L43.4808 76.1985C35.2786 71.8376 28.0137 66.0714 21.6851 58.8963L21.685 58.8962C15.3536 51.724 10.2606 43.4853 6.40693 34.1765L6.40686 34.1764C2.55495 24.8812 0.630432 15.3431 0.630432 5.55854C0.630432 4.28939 1.00046 3.2662 1.71839 2.4526C2.43299 1.64275 3.30774 1.24707 4.37608 1.24707H20.7522C21.56 1.24707 22.2833 1.53641 22.9394 2.14474C23.5886 2.7467 23.9763 3.51452 24.0974 4.47549L24.0986 4.48467L24.1001 4.49381L26.7268 20.5228C26.8551 21.5464 26.8371 22.4624 26.6822 23.2757C26.5297 24.0657 26.1826 24.7681 25.6338 25.3901L25.6321 25.392L15.8267 36.6187L15.6033 36.8745L15.7587 37.1765C18.6091 42.7142 22.1889 47.9039 26.4964 52.7454C30.8003 57.586 35.5304 61.7755 40.6867 65.3123L41.0517 65.5627L41.3445 65.2308L50.8466 54.4623C51.3897 53.8469 52.1067 53.3748 53.0156 53.0542C53.9135 52.7395 54.7833 52.6549 55.6325 52.7896L69.5603 55.9921C69.5612 55.9923 69.5622 55.9925 69.5632 55.9928C70.3894 56.1941 71.0658 56.6412 71.6047 57.3524C72.1412 58.0633 72.413 58.8921 72.413 59.8594V78.418C72.413 79.6871 72.043 80.7103 71.3251 81.5239C70.6105 82.3337 69.7357 82.7294 68.6674 82.7294C60.062 82.7294 51.6683 80.5561 43.4809 76.1986ZM11.8953 28.4207L12.1913 29.1903L12.7369 28.572L19.4086 21.0111L19.5646 20.8343L19.5274 20.6015L17.809 9.83298L17.7417 9.41178H17.3152H8.31848H7.76178L7.82135 9.96527C8.15987 13.1111 8.63383 16.2188 9.24326 19.2884C9.85548 22.372 10.7396 25.4162 11.8953 28.4207ZM48.1762 68.9224L47.744 69.4122L48.3296 69.7015C50.9847 71.0131 53.6932 72.0555 56.4547 72.8278C59.2126 73.5999 61.9894 74.1021 64.7848 74.3339L65.3261 74.3788V73.8356V63.7544V63.356L64.9377 63.267L55.4355 61.0904L55.1457 61.024L54.949 61.247L48.1762 68.9224Z" fill="#FBBC04" stroke="black"/>
</svg>
