<svg width="124" height="60" viewBox="0 0 164 129" fill="none" xmlns="http://www.w3.org/2000/svg">
<path d="M155.001 94.1248V102.167H9.00065V94.1248C9.00065 76.0082 14.3107 60.0292 24.9287 46.1685L24.9288 46.1684C35.5411 32.308 49.1517 23.5487 65.7753 19.8735L66.1673 19.7868V19.3853V17.2498C66.1673 12.6786 67.7197 8.78286 70.8304 5.53484L70.831 5.53423C73.9358 2.28134 77.6503 0.666504 82.0006 0.666504C86.3511 0.666504 90.0684 2.28138 93.1787 5.53453C96.2841 8.7825 97.834 12.6784 97.834 17.2498V19.3853V19.7875L98.2269 19.8736C114.987 23.5492 128.632 32.3087 139.178 46.1672C149.725 60.0279 155.001 76.0074 155.001 94.1248ZM24.747 85.5149L24.6686 86.0832H25.2423H138.759H139.327L139.255 85.5193C137.335 70.5993 130.951 58.2457 120.106 48.4824C109.262 38.7194 96.5524 33.8332 82.0006 33.8332C67.4489 33.8332 54.7743 38.7195 44.0003 48.4834C33.2224 58.2459 26.8041 70.5975 24.747 85.5149ZM0.833984 127.792V111.708H163.167V127.792H0.833984Z" fill="#FF9505" stroke="black"/>
</svg>
