<svg width="40" height="40" viewBox="0 0 98 111" fill="none" xmlns="http://www.w3.org/2000/svg">
<path d="M15.361 109.056L26.1589 68.9276L26.2432 68.6145L25.9917 68.4099L-3.0413 44.7821H32.7522H33.1369L33.2355 44.4102L44.4783 2.01307L55.7211 44.4102L55.8197 44.7821H56.2044H91.9978L62.9648 68.4099L62.7134 68.6145L62.7976 68.9276L73.5955 109.056L44.8048 84.2281L44.4783 83.9466L44.1517 84.2281L15.361 109.056ZM34.0874 78.0674L33.6855 79.636L34.9018 78.5671L44.4783 70.1507L54.0547 78.5671L55.271 79.636L54.8692 78.0674L51.3095 64.1722L60.3611 56.8133L61.4533 55.9253H60.0457H48.7039L44.9615 41.8623L44.4783 40.0467L43.9951 41.8623L40.2526 55.9253H28.9109H27.5033L28.5955 56.8133L37.6471 64.1722L34.0874 78.0674ZM85.1907 61.8514H101.694L85.2054 75.1677L84.9512 75.373L85.0372 75.6883L93.703 107.442L79.2901 94.9822L72.9467 71.7309L85.1907 61.8514ZM72.6381 34.6174H62.5539L58.9455 20.9129L63.9868 2.00759L72.6381 34.6174Z" fill="#FBBC04" stroke="black"/>
</svg>
