<svg width="20" height="20" viewBox="0 0 37 38" fill="none" xmlns="http://www.w3.org/2000/svg">
<path d="M12.875 36.75H13.375V36.25V20.9167V20.4167H12.875H5.875V19C5.875 15.3894 7.10018 12.3452 9.55367 9.83723C12.0054 7.331 14.9776 6.08333 18.5 6.08333C22.0224 6.08333 24.9946 7.331 27.4463 9.83723C29.8998 12.3452 31.125 15.3894 31.125 19V20.4167H24.125H23.625V20.9167V36.25V36.75H24.125H31.625C32.7934 36.75 33.8044 36.3189 34.6315 35.4749L34.6321 35.4743C35.4574 34.6291 35.875 33.6008 35.875 32.4167V19C35.875 16.5406 35.4178 14.2292 34.5001 12.0711L34.5 12.0708C33.5856 9.92479 32.3487 8.05122 30.7882 6.45475L30.7879 6.45446C29.2261 4.85924 27.3921 3.59371 25.2902 2.65789L25.2899 2.65774C23.1755 1.71826 20.9104 1.25 18.5 1.25C16.0896 1.25 13.825 1.71826 11.7119 2.65779L11.7117 2.65785C9.60857 3.59367 7.77451 4.85924 6.21383 6.4546C4.65205 8.05109 3.41441 9.92471 2.50001 12.0708L2.49987 12.0711C1.58217 14.2292 1.125 16.5406 1.125 19V32.4167C1.125 33.6008 1.54255 34.6291 2.36791 35.4743L2.36851 35.4749C3.19561 36.3189 4.20664 36.75 5.375 36.75H12.875ZM5.875 31.9167V25.25H8.625V31.9167H5.875ZM31.125 31.9167H28.375V25.25H31.125V31.9167Z" fill="#FF9505" stroke="black"/>
</svg>
