<svg width="40" height="40" viewBox="0 0 88 91" fill="none" xmlns="http://www.w3.org/2000/svg">
<path d="M19.8185 82.2532V82.7532H20.3185H68.0315H68.5315V82.2532V71.9429V71.4429H68.0315H20.3185H19.8185V71.9429V82.2532ZM19.8185 63.351V63.851H20.3185H68.0315H68.5315V63.351V53.0407V52.5407H68.0315H20.3185H19.8185V53.0407V63.351ZM19.8185 44.4488V44.9488H20.3185H68.0315H68.5315V44.4488V40.0956V39.8629L68.3535 39.7131L61.2774 33.756L61.1379 33.6385H60.9554H27.2935H27.109L26.9688 33.7583L19.9938 39.7154L19.8185 39.8651V40.0956V44.4488ZM36.9773 25.1656L35.9408 26.0466H37.3011H51.0489H52.4092L51.3727 25.1656L44.4988 19.3231L44.175 19.0479L43.8512 19.3231L36.9773 25.1656ZM86.9798 46.3708L82.9924 52.2954L75.9385 46.2459L75.113 45.5379V46.6254V90.3451H13.237V46.5109V45.4268L12.4124 46.1306L4.65407 52.7519L0.661027 46.7183L13.0618 36.1225L13.237 35.9728V35.7424V22.2662H19.8185V29.2125V30.2976L20.6433 29.5926L44.1737 9.47993L86.9798 46.3708ZM35.9628 0.5C35.7342 3.52483 34.5775 6.1812 32.4833 8.48468C30.2811 10.907 27.6498 12.1015 24.5641 12.1015C23.2725 12.1015 22.164 12.603 21.2651 13.5776L21.2645 13.5782C20.4723 14.4401 20.0069 15.4819 19.8601 16.6838H13.2538C13.4143 13.3514 14.5479 10.5244 16.6474 8.17867C18.8504 5.72022 21.481 4.50956 24.5641 4.50956C25.8477 4.50956 26.9677 4.03304 27.901 3.10373L27.9016 3.10316C28.6847 2.32094 29.1804 1.45199 29.3521 0.5H35.9628Z" fill="#FBBC04" stroke="black"/>
</svg>
