<svg width="40" height="40" viewBox="0 0 90 99" fill="none" xmlns="http://www.w3.org/2000/svg">
<path d="M0.821596 50.8265C0.87553 44.0451 2.02842 37.7043 4.27641 31.8003L4.27648 31.8002C6.58015 25.7429 9.73324 20.4685 13.7334 15.9715C17.7343 11.4768 22.3996 7.92724 27.7316 5.31981C33.053 2.72069 38.7397 1.42065 44.7979 1.42065C50.8561 1.42065 56.5427 2.72069 61.8641 5.31981C67.1962 7.92724 71.8615 11.4768 75.8623 15.9715C79.8625 20.4685 83.0169 25.7429 85.3233 31.8002C87.5687 37.7042 88.7203 44.045 88.7741 50.8265H81.6867C81.6324 45.2287 80.6637 39.9684 78.777 35.0497L78.7769 35.0494C76.8352 29.997 74.1932 25.5733 70.8489 21.7832C67.5036 17.9921 63.5931 15.0109 59.1196 12.8431L59.1195 12.843C54.6349 10.6711 49.859 9.58536 44.7979 9.58536C39.7367 9.58536 34.9608 10.6711 30.4763 12.843L30.4762 12.8431C26.0026 15.0109 22.0921 17.9921 18.7469 21.7832C15.4025 25.5733 12.7606 29.997 10.8188 35.0494L10.8187 35.0497C8.93206 39.9684 7.96334 45.2287 7.90899 50.8265H0.821596ZM59.4787 34.7835L59.4785 34.7832C55.4468 30.2174 50.545 27.9148 44.7979 27.9148C39.0507 27.9148 34.1502 30.2174 30.1212 34.7834C26.1959 39.2317 24.1861 44.5884 24.0845 50.8265H16.9964C17.0968 42.1456 19.8208 34.8344 25.1555 28.8624C30.5933 22.7751 37.1324 19.7501 44.7979 19.7501C52.4633 19.7501 59.0024 22.7751 64.4402 28.8624C69.7749 34.8344 72.4989 42.1456 72.5993 50.8265H65.5112C65.4097 44.5885 63.4013 39.2319 59.4787 34.7835ZM61.9223 92.5677L56.9283 98.2273L45.1728 84.9051L44.7979 84.4802L44.423 84.9051L32.6674 98.2273L27.6734 92.5677L41.1293 77.3185L41.2544 77.1768V76.9877V61.866V61.5579L40.9793 61.4194C39.2536 60.5502 37.8575 59.2088 36.7913 57.3759L36.7911 57.3754C35.724 55.5454 35.1892 53.5326 35.1892 51.3265C35.1892 48.2294 36.1291 45.639 37.9956 43.5237C39.8597 41.4111 42.1179 40.3707 44.7979 40.3707C47.4779 40.3707 49.736 41.4111 51.6001 43.5237C53.4667 45.639 54.4066 48.2294 54.4066 51.3265C54.4066 53.5328 53.873 55.5458 52.8084 57.3759C51.7396 59.2088 50.3421 60.5502 48.6164 61.4194L48.3413 61.5579V61.866V76.9877V77.1768L48.4664 77.3185L61.9223 92.5677Z" fill="#FBBC04" stroke="black"/>
</svg>
