<svg width="50" height="52" viewBox="0 0 190 142" fill="none" xmlns="http://www.w3.org/2000/svg">
<path d="M43.6603 137.329C47.1928 139.957 51.4836 141.281 56.5603 141.281C61.6366 141.281 65.9307 139.957 69.4697 137.329L43.6603 137.329ZM43.6603 137.329C40.1242 134.699 38.4061 131.562 38.4061 127.905M43.6603 137.329L38.4061 127.905M38.4061 127.905C38.4061 124.248 40.1242 121.112 43.6603 118.482M38.4061 127.905L43.6603 118.482M43.6603 118.482C47.1928 115.854 51.4836 114.529 56.5603 114.529M43.6603 118.482L56.5603 114.529M56.5603 114.529C61.637 114.529 65.9312 115.854 69.4703 118.482M56.5603 114.529L69.4703 118.482M69.4703 118.482C72.9994 121.112 74.7145 124.248 74.7145 127.905M69.4703 118.482L74.7145 127.905M74.7145 127.905C74.7145 131.562 72.9994 134.699 69.4703 137.329L74.7145 127.905ZM95.6957 9.53171C95.7711 7.9135 96.5992 6.41825 98.286 5.04421C100.137 3.78694 102.171 3.16052 104.402 3.16052C106.643 3.16052 108.683 3.78888 110.536 5.04958L135.705 23.9517C136.469 24.6363 137.029 25.3345 137.4 26.0434C137.765 26.7589 137.945 27.4927 137.945 28.2501C137.945 29.0075 137.765 29.7413 137.4 30.4568C137.029 31.1651 136.47 31.8629 135.707 32.547L110.288 51.2746L110.278 51.2822L110.268 51.2902C108.756 52.5272 106.855 53.1595 104.528 53.1595C102.206 53.1595 100.127 52.529 98.2773 51.2699C96.6063 50.0241 95.8222 48.5711 95.8222 46.8981C95.8222 45.2275 96.6085 43.7748 98.2855 42.5273L107.976 35.319L109.187 34.4178H107.678H75.2145C72.8887 34.4178 70.8962 33.7856 69.2141 32.5343C67.5319 31.283 66.7508 29.8577 66.7508 28.2501C66.7508 26.5115 67.5424 25.0292 69.2141 23.7857C70.8962 22.5344 72.8887 21.9022 75.2145 21.9022H107.678H109.218L107.971 20.9975L98.0432 13.7927C98.0425 13.7921 98.0418 13.7916 98.0411 13.7911C96.3652 12.5437 95.6276 11.1282 95.6957 9.53171ZM40.8461 99.1212L40.8458 99.1208C39.076 96.8995 38.215 94.7367 38.1953 92.6249C38.1757 90.5149 38.9953 88.3858 40.7193 86.229L40.7251 86.2218L40.7305 86.2144L53.8127 68.554L54.0172 68.2778L53.8327 67.9879L19.4315 13.9254L19.2842 13.6938H19.0097H9.31923C6.824 13.6938 4.75308 13.0575 3.07658 11.8104C1.40486 10.5669 0.613281 9.08457 0.613281 7.34593C0.613281 5.73837 1.39442 4.31298 3.07658 3.06169C4.75308 1.81462 6.824 1.17822 9.31923 1.17822H24.824C26.5373 1.17822 28.0807 1.49529 29.4623 2.12092C30.8383 2.74883 31.892 3.62208 32.6424 4.73631L70.6741 64.56L70.8214 64.7918H71.096H137.96H138.212L138.362 64.59L172.52 18.6378C173.27 17.6332 174.287 16.8434 175.586 16.2736C176.888 15.7053 178.394 15.4147 180.114 15.4147C183.386 15.4147 185.812 16.4789 187.476 18.5569C188.314 19.6075 188.699 20.6054 188.699 21.559C188.699 22.5112 188.315 23.4918 187.48 24.5087L187.472 24.5184L187.465 24.5285L153.549 70.2999C153.549 70.3001 153.549 70.3003 153.548 70.3006C151.99 72.3872 149.84 74.0803 147.08 75.3723C144.326 76.6587 141.208 77.3074 137.718 77.3074H66.9776H66.7266L66.5766 77.5087L55.4326 92.466L54.8375 93.2647H55.8335H161.217C163.543 93.2647 165.536 93.8969 167.218 95.1482C168.9 96.3994 169.681 97.8248 169.681 99.4324C169.681 101.171 168.89 102.653 167.218 103.897C165.536 105.148 163.543 105.78 161.217 105.78H56.5603C49.5695 105.78 44.3611 103.541 40.8461 99.1212ZM151.527 141.281C146.451 141.281 142.157 139.957 138.618 137.329C135.088 134.699 133.373 131.563 133.373 127.905C133.373 124.248 135.088 121.112 138.617 118.482C142.156 115.854 146.45 114.529 151.527 114.529C156.604 114.529 160.898 115.854 164.437 118.482C167.966 121.112 169.681 124.248 169.681 127.905C169.681 131.563 167.966 134.699 164.436 137.329C160.897 139.957 156.603 141.281 151.527 141.281Z" fill="#FF9505" stroke="black"/>
</svg>
